# xmcd CD Database Entry
#
# Track frame offsets:
# 150
# 18081
# 38222
# 56287
# 79495
# 96464
# 112125
# 132318
# 151171
# 172506
# 187700
# 204782
# 228380
# 249020
# 268330
# 291512
# 306510
#
# Disc length: 4280 seconds
#
# Revision: 3
# Processed by: cddbd v1.4PL0 Copyright (c) Steve Scherf et al.
# Submitted via: tcd 2.0b
#
DISCID=df10b611
DTITLE=VACILOS
DYEAR=1900
DGENRE=
TTITLE0=Pista 1
TTITLE1=CARALUNA
TTITLE2=UN SEGUNDO
TTITLE3=Pista 4
TTITLE4=Pista 5
TTITLE5=Pista 6
TTITLE6=Pista 7
TTITLE7=Pista 8
TTITLE8=Pista 9
TTITLE9=Pista 10
TTITLE10=Pista 11
TTITLE11=Pista 12
TTITLE12=Pista 13
TTITLE13=Pista 14
TTITLE14=Pista 15
TTITLE15=Pista 16
TTITLE16=Pista 17
EXTD=
EXTT0=
EXTT1=
EXTT2=
EXTT3=
EXTT4=
EXTT5=
EXTT6=
EXTT7=
EXTT8=
EXTT9=
EXTT10=
EXTT11=
EXTT12=
EXTT13=
EXTT14=
EXTT15=
EXTT16=
PLAYORDER=
